<svg width="120" height="120" viewBox="0 0 120 120" fill="none" xmlns="http://www.w3.org/2000/svg">
  <!-- Outer decorative circles -->
  <circle cx="60" cy="60" r="56" stroke="#D4A534" stroke-width="3" fill="none"/>
  <circle cx="60" cy="60" r="48" stroke="#D4A534" stroke-width="2" fill="none" opacity="0.8"/>
  
  <!-- Woven circle pattern -->
  <ellipse cx="60" cy="60" rx="42" ry="35" stroke="#D4A534" stroke-width="2.5" fill="none" transform="rotate(0 60 60)"/>
  <ellipse cx="60" cy="60" rx="42" ry="35" stroke="#D4A534" stroke-width="2.5" fill="none" transform="rotate(60 60 60)"/>
  <ellipse cx="60" cy="60" rx="42" ry="35" stroke="#D4A534" stroke-width="2.5" fill="none" transform="rotate(120 60 60)"/>
  
  <!-- Shield background -->
  <path d="M60 28 L85 38 L85 60 C85 78 72 92 60 98 C48 92 35 78 35 60 L35 38 L60 28Z" 
        fill="#2D5A3D" stroke="#2D5A3D" stroke-width="2"/>
  
  <!-- Shield inner border -->
  <path d="M60 32 L81 41 L81 59 C81 74 70 86 60 91 C50 86 39 74 39 59 L39 41 L60 32Z" 
        fill="none" stroke="#3D7A4D" stroke-width="1.5"/>
  
  <!-- Lock body -->
  <rect x="50" y="55" width="20" height="16" rx="2" fill="#1A3D25"/>
  
  <!-- Lock shackle -->
  <path d="M53 55 L53 48 C53 43 56 40 60 40 C64 40 67 43 67 48 L67 55" 
        stroke="#1A3D25" stroke-width="4" fill="none" stroke-linecap="round"/>
  
  <!-- Lock keyhole -->
  <circle cx="60" cy="62" r="3" fill="#3D7A4D"/>
  <rect x="58.5" y="62" width="3" height="5" fill="#3D7A4D"/>
</svg>
